<svg xmlns="http://www.w3.org/2000/svg" version="1.1" xmlns:xlink="http://www.w3.org/1999/xlink" xmlns:svgjs="http://svgjs.dev/svgjs" width="1000" height="244" viewBox="0 0 1000 244"><g transform="matrix(1,0,0,1,-0.6056348047761162,-0.3247937409232122)"><svg viewBox="0 0 396 97" data-background-color="#ffffff" preserveAspectRatio="xMidYMid meet" height="244" width="1000" xmlns="http://www.w3.org/2000/svg" xmlns:xlink="http://www.w3.org/1999/xlink"><g id="tight-bounds" transform="matrix(1,0,0,1,0.24008861730862918,0.12921013126899084)"><svg viewBox="0 0 395.52 96.74161070357555" height="96.74161070357555" width="395.52"><g><svg viewBox="0 0 395.52 96.74161070357555" height="96.74161070357555" width="395.52"><g><svg viewBox="0 0 395.52 96.74161070357555" height="96.74161070357555" width="395.52"><g id="textblocktransform"><svg viewBox="0 0 395.52 96.74161070357555" height="96.74161070357555" width="395.52" id="textblock"><g><svg viewBox="0 0 395.52 96.74161070357555" height="96.74161070357555" width="395.52"><path d="M394.594 20.749C392.735 10.707 387.435 7.916 387.435 7.916 371.165-2.427 350.86-0.198 332.619 1.288 300.414 1.349 268.339 3.558 236.208 4.743 168.767 4.923 100.749 1.951 33.643 9.282 27.339 11.531-6.54 9.723 1.121 22.035 3.129 27.156 10.456 32.839 10.232 37.539 11.236 38.362 12.631 36.475 13.226 37.66 15.309 40.853 18.711 39.347 21.501 41.234 17.614 46.275 20.403 50.473 23.062 54.871 18.377 56.016 12.371 55.474 9.675 59.269 9.396 62.021 7.89 61.499 6.235 61.378 5.026 61.298 2.59 61.599 2.999 62.463 4.394 65.415-1.594 67.122 2.162 70.014-0.422 73.147 3.948 75.858 3.353 79.252 3.278 79.935 3.687 80.518 4.338 80.678 7.22 81.542 3.018 83.229 3.464 85.057 33.029 97.548 65.104 88.913 95.394 94.656 103.259 90.64 97.346 96.082 100.489 95.239 102.943 94.255 104.728 98.332 107.499 96.022 107.927 95.359 107.276 93.793 108.8 94.094 109.6 94.255 110.307 94.215 110.418 93.291 110.586 91.905 109.117 92.769 108.726 92.046 112.947 88.39 111.906 97.087 115.866 96.725 115.68 95.661 114.528 94.134 116.889 94.335 119.232 92.809 119.306 91.544 121.389 94.978 121.463 95.721 121.835 96.243 122.43 96.605 128.938 92.869 135.409 97.93 142.233 96.243 146.417 94.395 150.433 97.247 154.672 96.544 156.16 95.982 157.666 94.978 159.098 96.665 176.632 97.026 195.319 95.52 211.943 96.725 256.364 94.476 303.835 97.649 350.674 94.677 361.719 93.532 373.192 91.905 383.958 90.6 383.958 90.6 392.679 87.025 392.679 70.958S394.538 56.9 394.817 44.106C395.096 31.313 396.398 30.791 394.538 20.749Z" opacity="1" fill="#0063db" data-fill-palette-color="tertiary"></path><g transform="matrix(1,0,0,1,55.76832,26.230666666666668)"><svg width="283.98335999999995" viewBox="0.550000011920929 -35.29999923706055 231.17999267578125 36.04999923706055" height="44.28027737024221" data-palette-color="#ffffff"><path d="M12.75-35.3Q16.05-35.3 18.53-34.25 21-33.2 23.1-31.05L23.1-31.05 20-27.5Q18.35-28.95 16.7-29.65 15.05-30.35 13.15-30.35L13.15-30.35Q11.05-30.35 9.78-29.25 8.5-28.15 8.5-26.2L8.5-26.2Q8.5-24.9 9.03-24 9.55-23.1 10.9-22.33 12.25-21.55 14.8-20.65L14.8-20.65Q19.45-18.95 21.73-16.6 24-14.25 24-9.85L24-9.85Q24-6.8 22.55-4.4 21.1-2 18.38-0.63 15.65 0.75 12 0.75L12 0.75Q5.15 0.75 0.55-3.95L0.55-3.95 3.85-7.6Q5.75-5.95 7.63-5.1 9.5-4.25 11.75-4.25L11.75-4.25Q14.3-4.25 15.78-5.65 17.25-7.05 17.25-9.5L17.25-9.5Q17.25-11.7 16-12.98 14.75-14.25 11.25-15.45L11.25-15.45Q6.25-17.2 4.05-19.6 1.85-22 1.85-25.75L1.85-25.75Q1.85-28.5 3.25-30.68 4.65-32.85 7.15-34.08 9.65-35.3 12.75-35.3L12.75-35.3ZM51.9-34.55L51.9-10.4Q51.9-7.2 50.55-4.67 49.2-2.15 46.55-0.7 43.9 0.75 40.1 0.75L40.1 0.75Q34.35 0.75 31.32-2.3 28.3-5.35 28.3-10.4L28.3-10.4 28.3-34.55 34.8-34.55 34.8-10.7Q34.8-7.45 36.07-5.88 37.35-4.3 40.1-4.3L40.1-4.3Q42.8-4.3 44.1-5.9 45.4-7.5 45.4-10.7L45.4-10.7 45.4-34.55 51.9-34.55ZM71.3-35.3Q74.39-35.3 76.82-34.27 79.25-33.25 81.39-31.25L81.39-31.25 78.05-27.8Q76.34-29.2 74.87-29.8 73.39-30.4 71.5-30.4L71.5-30.4Q67.89-30.4 65.72-27.33 63.55-24.25 63.55-17.3L63.55-17.3Q63.55-12.4 64.32-9.53 65.09-6.65 66.64-5.43 68.19-4.2 70.59-4.2L70.59-4.2Q73.19-4.2 75.34-5.5L75.34-5.5 75.34-14.7 70.84-14.7 70.19-19.5 81.59-19.5 81.59-2.65Q79.19-1.05 76.39-0.15 73.59 0.75 70.69 0.75L70.69 0.75Q56.8 0.75 56.8-17.3L56.8-17.3Q56.8-23.15 58.72-27.2 60.64-31.25 63.92-33.27 67.19-35.3 71.3-35.3L71.3-35.3ZM110.84 0L104.14 0 102.24-8.05 92.24-8.05 90.34 0 83.79 0 93.39-34.55 101.29-34.55 110.84 0ZM97.24-29.6L93.34-12.95 101.14-12.95 97.24-29.6ZM130.99 0L124.19-13.9 120.64-13.9 120.64 0 114.14 0 114.14-34.55 123.24-34.55Q136.29-34.55 136.29-24.4L136.29-24.4Q136.29-21.1 134.74-18.73 133.19-16.35 130.09-15.1L130.09-15.1 138.14 0 130.99 0ZM120.64-18.55L123.59-18.55Q126.69-18.55 128.14-19.95 129.59-21.35 129.59-24.4L129.59-24.4Q129.59-27.2 128.06-28.5 126.54-29.8 123.19-29.8L123.19-29.8 120.64-29.8 120.64-18.55ZM160.99-34.55Q165.69-34.55 169.16-33.2 172.64-31.85 174.81-28.08 176.99-24.3 176.99-17.45L176.99-17.45Q176.99-7.75 172.71-3.88 168.44 0 161.74 0L161.74 0 152.94 0 152.94-34.55 160.99-34.55ZM162.04-29.7L159.44-29.7 159.44-4.85 162.19-4.85Q166.04-4.85 168.16-7.55 170.29-10.25 170.29-17.45L170.29-17.45Q170.29-22.45 169.21-25.15 168.14-27.85 166.36-28.78 164.59-29.7 162.04-29.7L162.04-29.7ZM182.38-34.55L188.88-34.55 188.88 0 182.38 0 182.38-34.55ZM203.83-34.55Q208.53-34.55 212.01-33.2 215.48-31.85 217.66-28.08 219.83-24.3 219.83-17.45L219.83-17.45Q219.83-7.75 215.56-3.88 211.28 0 204.58 0L204.58 0 195.78 0 195.78-34.55 203.83-34.55ZM204.88-29.7L202.28-29.7 202.28-4.85 205.03-4.85Q208.88-4.85 211.01-7.55 213.13-10.25 213.13-17.45L213.13-17.45Q213.13-22.45 212.06-25.15 210.98-27.85 209.21-28.78 207.43-29.7 204.88-29.7L204.88-29.7ZM225.23-34.55L231.73-34.55 231.73 0 225.23 0 225.23-34.55Z" opacity="1" transform="matrix(1,0,0,1,0,0)" fill="#ffffff" class="wordmark-text-0" data-fill-palette-color="quaternary" id="text-0"></path></svg></g></svg></g></svg></g></svg></g><g></g></svg></g><defs></defs></svg><rect width="395.52" height="96.74161070357555" fill="none" stroke="none" visibility="hidden"></rect></g></svg></g></svg>